{"title":"Rosenstrasse-AC3-XviD-DVDRip 2003 TBS","uid":6334777,"size":1883736840,"categoryP":"video","categoryS":"movies","magnet":"?xt=urn:btih:f7ca8e34f93f8c5691581c7e98a4e5e5a32ac024&amp;dn=Rosenstrasse-AC3-XviD-DVDRip+2003+TBS&amp;tr=udp%3A%2F%2Ftracker.openbittorrent.com%3A80&amp;tr=udp%3A%2F%2Fopen.demonii.com%3A1337&amp;tr=udp%3A%2F%2Ftracker.coppersurfer.tk%3A6969&amp;tr=udp%3A%2F%2Fexodus.desync.com%3A6969","seeders":1,"leechers":0,"uploader":"FatFreddy30","files":-1,"time":1303421585,"description":"After the death of her father, Hannah becomes concerned with the strange behavior of her mother. As her mother's troubled childhood is revealed, Hannah realizes how little she ever knew...\n &lt;a href=&quot;\nhttp://www.imdb.com/title/tt0298131/&quot; rel=&quot;nofollow&quot; target=&quot;_NEW&quot;&gt;\nhttp://www.imdb.com/title/tt0298131/&lt;/a&gt;\n\nAudio: German-English  Subs: Dutch, English.\n\n\nIn februari 1943 gingen de Duitsers ertoe over om ook de Joodse partners uit gemengde huwelijken op te pakken. Deze werden ondergebracht in een pand aan de Rosenstrasse. Een dagelijks groeiende groep echtgenoten verzamelde zich voor dat pand om te proberen hun mannen vrij te krijgen. Ruim vijftig jaar later ontmoet een jonge journaliste uit New York de vrouw die het leven van haar moeder heeft gered...\n &lt;a href=&quot;\nhttp://www.moviemeter.nl/film/12595&quot; rel=&quot;nofollow&quot; target=&quot;_NEW&quot;&gt;\nhttp://www.moviemeter.nl/film/12595&lt;/a&gt;\n\nAudio: Duits-Engels    Subs: Engels, Nederlands.\n\nGeneral\nComplete name                    : Rosenstrasse-AC3-XviD-DVDRip 2003.avi\nFormat                           : AVI\nFormat/Info                      : Audio Video Interleave\nFile size                        : 1.75 GiB\nDuration                         : 2h 10mn\nOverall bit rate                 : 1 930 Kbps\nWriting application              : VirtualDubMod 1.5.4.1 (build 2178/release)\nWriting library                  : VirtualDubMod build 2178/release\nSource                           : Pal Retail DVD9\n\nVideo\nID                               : 0\nFormat                           : MPEG-4 Visual\nFormat profile                   : Simple@L3\nFormat settings, BVOP            : No\nFormat settings, QPel            : No\nFormat settings, GMC             : No warppoints\nFormat settings, Matrix          : Default (H.263)\nCodec ID                         : XVID\nCodec ID/Hint                    : XviD\nDuration                         : 2h 10mn\nBit rate                         : 1 472 Kbps\nWidth                            : 720 pixels\nHeight                           : 304 pixels\nDisplay aspect ratio             : 2.35:1\nFrame rate                       : 25.000 fps\nResolution                       : 8 bits\nColorimetry                      : 4:2:0\nScan type                        : Progressive\nBits/(Pixel*Frame)               : 0.269\nStream size                      : 1.34 GiB (76%)\nWriting library                  : XviD 1.1.2 (UTC 2006-11-01)\n\nAudio\nID                               : 1\nFormat                           : AC-3\nFormat/Info                      : Audio Coding 3\nCodec ID                         : 2000\nDuration                         : 2h 10mn\nBit rate mode                    : Constant\nBit rate                         : 448 Kbps\nChannel(s)                       : 6 channels\nChannel positions                : Front: L C R, Surround: L R, LFE\nSampling rate                    : 48.0 KHz\nStream size                      : 417 MiB (23%)\nAlignment                        : Split accross interleaves\nInterleave, duration             : 40 ms (1.00 video frame)\nInterleave, preload duration     : 500 ms\n\nEnjoy...\n\nTBS.","torrent":{"xt":"urn:btih:f7ca8e34f93f8c5691581c7e98a4e5e5a32ac024","amp;dn":"Rosenstrasse-AC3-XviD-DVDRip+2003+TBS","amp;tr":["udp%3A%2F%2Ftracker.openbittorrent.com%3A80","udp%3A%2F%2Fopen.demonii.com%3A1337","udp%3A%2F%2Ftracker.coppersurfer.tk%3A6969","udp%3A%2F%2Fexodus.desync.com%3A6969"],"infoHash":"f7ca8e34f93f8c5691581c7e98a4e5e5a32ac024","infoHashBuffer":{"type":"Buffer","data":[247,202,142,52,249,63,140,86,145,88,28,126,152,164,229,229,163,42,192,36]},"announce":[],"urlList":[]}}